<svg width="22" height="21" viewBox="0 0 22 21" fill="none" xmlns="http://www.w3.org/2000/svg">
<g id="Arrow">
<path id="Vector" d="M12.052 19.3065L9.90426 19.3065L9.90426 6.77779L7.75649 6.77779L7.75649 4.93884C7.75649 4.80123 7.87123 4.68968 8.01277 4.68968L9.64798 4.68968C9.78952 4.68968 9.90426 4.57812 9.90426 4.44051L9.90426 2.85073C9.90426 2.71312 10.019 2.60156 10.1605 2.60156L11.7958 2.60156C11.9373 2.60156 12.052 2.71312 12.052 2.85073L12.052 4.44051C12.052 4.57812 12.1668 4.68968 12.3083 4.68968L13.9435 4.68968C14.0851 4.68968 14.1998 4.80123 14.1998 4.93884L14.1998 6.77779L12.052 6.77779L12.052 19.3065ZM16.3476 8.86591L16.3476 7.02695C16.3476 6.88935 16.2328 6.77779 16.0913 6.77779L14.1998 6.77779L14.1998 8.61674C14.1998 8.75435 14.3146 8.86591 14.4561 8.86591L16.3476 8.86591ZM16.3476 8.86591L16.3476 10.7049C16.3476 10.8425 16.4623 10.954 16.6039 10.954L18.2391 10.954C18.3806 10.954 18.4954 10.8425 18.4954 10.7049L18.4954 9.11507C18.4954 8.97746 18.3806 8.86591 18.2391 8.86591L16.3476 8.86591ZM5.60871 8.8659L5.60871 7.02695C5.60871 6.88934 5.72345 6.77779 5.86499 6.77779L7.75649 6.77779L7.75649 8.61674C7.75649 8.75435 7.64175 8.8659 7.50021 8.8659L5.60871 8.8659ZM5.60871 8.8659L5.60871 10.7049C5.60871 10.8425 5.49397 10.954 5.35243 10.954L3.71722 10.954C3.57568 10.954 3.46094 10.8425 3.46094 10.7049L3.46094 9.11507C3.46094 8.97746 3.57568 8.8659 3.71722 8.8659L5.60871 8.8659Z" fill="#030303"/>
</g>
</svg>
