<svg width="12" height="13" viewBox="0 0 12 13" fill="none" xmlns="http://www.w3.org/2000/svg">
<g id="Arrow">
<path id="Vector" d="M6.64286 11.7598L5.35714 11.7598L5.35714 4.25977L4.07143 4.25977L4.07143 3.15892C4.07143 3.07654 4.14012 3.00977 4.22485 3.00977L5.20373 3.00977C5.28846 3.00977 5.35714 2.94299 5.35714 2.86061L5.35714 1.90892C5.35714 1.82654 5.42583 1.75977 5.51056 1.75977L6.48944 1.75977C6.57417 1.75977 6.64286 1.82655 6.64286 1.90892L6.64286 2.86061C6.64286 2.94299 6.71154 3.00977 6.79627 3.00977L7.77516 3.00977C7.85988 3.00977 7.92857 3.07655 7.92857 3.15892L7.92857 4.25977L6.64286 4.25977L6.64286 11.7598ZM9.21429 5.50977L9.21429 4.40892C9.21429 4.32655 9.1456 4.25977 9.06087 4.25977L7.92857 4.25977L7.92857 5.36061C7.92857 5.44299 7.99726 5.50977 8.08199 5.50977L9.21429 5.50977ZM9.21429 5.50977L9.21429 6.61061C9.21429 6.69299 9.28297 6.75977 9.3677 6.75977L10.3466 6.75977C10.4313 6.75977 10.5 6.69299 10.5 6.61061L10.5 5.65892C10.5 5.57654 10.4313 5.50977 10.3466 5.50977L9.21429 5.50977ZM2.78571 5.50977L2.78571 4.40892C2.78571 4.32654 2.8544 4.25977 2.93913 4.25977L4.07143 4.25977L4.07143 5.36061C4.07143 5.44299 4.00274 5.50977 3.91801 5.50977L2.78571 5.50977ZM2.78571 5.50977L2.78571 6.61061C2.78571 6.69299 2.71703 6.75977 2.6323 6.75977L1.65342 6.75977C1.56869 6.75977 1.5 6.69299 1.5 6.61061L1.5 5.65892C1.5 5.57654 1.56869 5.50977 1.65342 5.50977L2.78571 5.50977Z" fill="#F7F7F7"/>
</g>
</svg>
