<svg width="13" height="13" viewBox="0 0 13 13" fill="none" xmlns="http://www.w3.org/2000/svg">
<g id="Arrow">
<path id="Vector" d="M1.5 7.40287L1.5 6.11715L9 6.11715V4.83144L10.1008 4.83144C10.1832 4.83144 10.25 4.90013 10.25 4.98486L10.25 5.96374C10.25 6.04847 10.3168 6.11715 10.3992 6.11715L11.3508 6.11715C11.4332 6.11715 11.5 6.18584 11.5 6.27057L11.5 7.24945C11.5 7.33418 11.4332 7.40287 11.3508 7.40287H10.3992C10.3168 7.40287 10.25 7.47155 10.25 7.55628V8.53516C10.25 8.61989 10.1832 8.68858 10.1008 8.68858H9V7.40287H1.5ZM7.75 9.9743H8.85084C8.93322 9.9743 9 9.90561 9 9.82088V8.68858H7.89916C7.81678 8.68858 7.75 8.75727 7.75 8.842V9.9743ZM7.75 9.9743H6.64916C6.56678 9.9743 6.5 10.043 6.5 10.1277V11.1066C6.5 11.1913 6.56678 11.26 6.64916 11.26H7.60084C7.68322 11.26 7.75 11.1913 7.75 11.1066V9.9743ZM7.75 3.54572L8.85084 3.54572C8.93322 3.54572 9 3.61441 9 3.69914L9 4.83144H7.89916C7.81678 4.83144 7.75 4.76275 7.75 4.67802V3.54572ZM7.75 3.54572H6.64916C6.56678 3.54572 6.5 3.47704 6.5 3.39231V2.41343C6.5 2.3287 6.56678 2.26001 6.64916 2.26001L7.60085 2.26001C7.68322 2.26001 7.75 2.3287 7.75 2.41343L7.75 3.54572Z" fill="#030303"/>
</g>
</svg>
